<svg width="164" height="23" viewBox="0 0 164 23" fill="none" xmlns="http://www.w3.org/2000/svg">
<path d="M13.9602 3.27695H3.10681C2.16654 3.27695 1.38469 4.00065 1.31217 4.93812L0.381885 16.9643C0.252269 18.6399 2.28602 19.5633 3.46222 18.3629L15.2458 6.33671C16.362 5.19758 15.555 3.27695 13.9602 3.27695Z" fill="#2C2826"/>
<path d="M156.958 4.04799H163.551V18.6103H156.958V17.9531C156.958 17.848 156.855 17.848 156.829 17.848C156.803 17.848 156.778 17.848 156.752 17.8743C155.953 18.6891 155.052 19.0834 154.022 19.0834C151.06 19.0834 148.896 15.7977 148.896 11.4606C148.896 7.25485 151.343 3.83771 154.357 3.83771H154.382C155.284 3.83771 156.082 4.15314 156.752 4.78399C156.778 4.81028 156.803 4.81028 156.829 4.81028C156.855 4.81028 156.958 4.78399 156.958 4.67885V4.04799ZM156.958 14.0629V8.83199C156.958 8.54285 156.726 8.33256 156.443 8.33256C156.16 8.33256 155.953 8.54285 155.953 8.83199V14.0629C155.953 14.352 156.16 14.5623 156.443 14.5623C156.726 14.5623 156.958 14.352 156.958 14.0629Z" fill="#2C2826"/>
<path d="M144.323 12.8011L140.743 13.3006C140.434 13.3269 140.331 13.616 140.331 13.8C140.331 13.8526 140.357 14.2994 140.794 14.2994C140.82 14.2994 140.846 14.2994 140.872 14.2994L148.032 13.2743V18.6103H138.142C135.772 18.6103 133.866 16.6651 133.866 14.2469C133.866 12.0651 135.463 10.1463 137.575 9.85715L141.232 9.33143C141.567 9.30515 141.644 9.04229 141.644 8.85829C141.644 8.80572 141.593 8.33258 141.232 8.33258C141.181 8.33258 141.155 8.35886 141.104 8.35886L133.866 9.38401V4.048H143.756C146.126 4.048 148.032 6.01943 148.032 8.43772C148.032 10.6194 146.435 12.4594 144.323 12.8011Z" fill="#2C2826"/>
<path d="M128.854 12.8011L125.274 13.3006C124.965 13.3269 124.862 13.616 124.862 13.8C124.862 13.8526 124.888 14.2994 125.326 14.2994C125.351 14.2994 125.377 14.2994 125.403 14.2994L132.563 13.2743V18.6103H122.673C120.303 18.6103 118.397 16.6651 118.397 14.2469C118.397 12.0651 119.994 10.1463 122.106 9.85715L125.764 9.33143C126.098 9.30515 126.176 9.04229 126.176 8.85829C126.176 8.80572 126.124 8.33258 125.764 8.33258C125.712 8.33258 125.686 8.35886 125.635 8.35886L118.397 9.38401V4.048H128.288C130.657 4.048 132.563 6.01943 132.563 8.43772C132.563 10.6194 130.966 12.4594 128.854 12.8011Z" fill="#2C2826"/>
<path d="M117.042 3.91657C116.913 4.83657 116.424 5.59886 115.728 6.09829C115.033 6.59771 114.338 6.75543 113.797 6.75543C113.616 6.75543 113.462 6.72914 113.282 6.70286C112.38 6.51886 111.633 6.04571 111.144 5.336C110.629 4.62629 110.5 3.91657 110.5 3.39085C110.5 3.20686 110.526 3.02286 110.552 2.83886C110.68 1.91886 111.17 1.15657 111.865 0.630857C112.56 0.131428 113.256 0 113.771 0C113.951 0 114.132 0.0262854 114.338 0.0525707C115.239 0.183999 115.986 0.683427 116.475 1.39314C116.965 2.10286 117.093 2.81257 117.093 3.33829C117.093 3.52229 117.068 3.70628 117.042 3.91657ZM117.093 18.6103H110.5V7.75428H117.093V18.6103Z" fill="#2C2826"/>
<path d="M104.612 3.83771C107.573 3.83771 109.737 7.12342 109.737 11.4606C109.737 15.64 107.29 19.0834 104.251 19.0834C103.35 19.0834 102.577 18.768 101.881 18.1109C101.856 18.0846 101.83 18.0846 101.804 18.0846C101.778 18.0846 101.675 18.1109 101.675 18.216V22.9737H95.082V4.04799H101.675V4.94171C101.675 5.04685 101.778 5.04685 101.804 5.04685C101.83 5.04685 101.856 5.04685 101.881 5.02056C102.654 4.23199 103.556 3.83771 104.612 3.83771ZM102.68 14.0629V8.83199C102.68 8.54285 102.448 8.33257 102.165 8.33257C101.881 8.33257 101.675 8.54285 101.675 8.83199V14.0629C101.675 14.352 101.881 14.5623 102.165 14.5623C102.448 14.5623 102.68 14.352 102.68 14.0629Z" fill="#2C2826"/>
<path d="M80.5052 3.83771H80.531C84.6519 3.83771 88.0001 7.25485 88.0001 11.4606C88.0001 15.64 84.6004 19.0834 80.5052 19.0834C76.3844 19.0834 73.0361 15.64 73.0361 11.4606C73.0361 7.25485 76.3844 3.83771 80.5052 3.83771ZM81.0203 14.0629V8.83199C81.0203 8.54285 80.8143 8.33256 80.531 8.33256C80.2477 8.33256 80.0416 8.54285 80.0416 8.83199V14.0629C80.0416 14.352 80.2477 14.5623 80.531 14.5623C80.8143 14.5623 81.0203 14.352 81.0203 14.0629Z" fill="#2C2826"/>
<path d="M65.6816 4.04799H72.275V16.1394C72.275 21.2389 69.6995 22.9737 65.5528 22.9737H63.9045V19.5566H65.5528C65.6301 19.5566 65.6816 19.5303 65.6816 19.4514V17.9531C65.6816 17.848 65.5786 17.848 65.5528 17.848C65.5271 17.848 65.5013 17.848 65.4755 17.8743C64.6771 18.6891 63.7757 19.0834 62.7455 19.0834C59.7836 19.0834 57.6201 15.7977 57.6201 11.4606C57.6201 7.25485 60.0669 3.83771 63.0803 3.83771H63.106C64.0075 3.83771 64.8059 4.15314 65.4755 4.78399C65.5013 4.81028 65.5271 4.81028 65.5528 4.81028C65.5786 4.81028 65.6816 4.78399 65.6816 4.67885V4.04799ZM65.6816 14.0629V8.83199C65.6816 8.54285 65.4498 8.33257 65.1665 8.33257C64.8832 8.33257 64.6771 8.54285 64.6771 8.83199V14.0629C64.6771 14.352 64.8832 14.5623 65.1665 14.5623C65.4498 14.5623 65.6816 14.352 65.6816 14.0629Z" fill="#2C2826"/>
<path d="M43.4818 3.83771H43.5076C47.6284 3.83771 50.9767 7.25485 50.9767 11.4606C50.9767 15.64 47.5769 19.0834 43.4818 19.0834C39.3609 19.0834 36.0127 15.64 36.0127 11.4606C36.0127 7.25485 39.3609 3.83771 43.4818 3.83771ZM43.9969 14.0629V8.83199C43.9969 8.54285 43.7909 8.33256 43.5076 8.33256C43.2242 8.33256 43.0182 8.54285 43.0182 8.83199V14.0629C43.0182 14.352 43.2242 14.5623 43.5076 14.5623C43.7909 14.5623 43.9969 14.352 43.9969 14.0629Z" fill="#2C2826"/>
<path d="M28.6582 4.04799H35.2516V16.1394C35.2516 21.2389 32.676 22.9737 28.5294 22.9737H26.881V19.5566H28.5294C28.6066 19.5566 28.6582 19.5303 28.6582 19.4514V17.9531C28.6582 17.848 28.5551 17.848 28.5294 17.848C28.5036 17.848 28.4779 17.848 28.4521 17.8743C27.6537 18.6891 26.7522 19.0834 25.722 19.0834C22.7601 19.0834 20.5967 15.7977 20.5967 11.4606C20.5967 7.25485 23.0435 3.83771 26.0568 3.83771H26.0826C26.984 3.83771 27.7825 4.15314 28.4521 4.78399C28.4779 4.81028 28.5036 4.81028 28.5294 4.81028C28.5551 4.81028 28.6582 4.78399 28.6582 4.67885V4.04799ZM28.6582 14.0629V8.83199C28.6582 8.54285 28.4264 8.33257 28.143 8.33257C27.8597 8.33257 27.6537 8.54285 27.6537 8.83199V14.0629C27.6537 14.352 27.8597 14.5623 28.143 14.5623C28.4264 14.5623 28.6582 14.352 28.6582 14.0629Z" fill="#2C2826"/>
</svg>
