<svg width="20" height="20" viewBox="0 0 20 20" fill="none" xmlns="http://www.w3.org/2000/svg">
<path d="M11.455 4.01401C11.3987 4.00992 11.3806 4.01242 11.358 3.99904L11.3523 3.43064C11.298 3.41032 11.2016 3.42189 11.1409 3.42189L8.70148 3.42086V4.01348L7.73464 4.01392L7.73361 3.00582C7.73345 2.72455 7.65358 2.33685 8.03564 2.29858L11.7299 2.30315C12.0625 2.30324 12.3345 2.23977 12.3355 2.69883L12.3346 4.01423L11.455 4.01401Z" fill="#C1AB91"/>
<path d="M15.3506 16.174C15.2391 16.6674 14.9549 17.2592 14.3935 17.3414C14.2454 17.363 14.0775 17.3491 13.9274 17.3492L6.00003 17.3485C5.6569 17.3475 5.40159 17.3159 5.14271 17.0553C4.53378 16.4421 4.61981 15.4641 4.61943 14.6723L4.61734 6.06336C4.59597 6.03136 4.48612 6.05367 4.44846 6.05367L3.77268 6.05352C3.38859 6.05317 3.35053 6.03086 3.34956 5.60977C3.34925 5.46586 3.30953 5.12292 3.3725 5.00142L3.392 4.96339C3.43009 4.89298 3.48165 4.85839 3.55662 4.8362L16.0584 4.83686C16.2028 4.83683 16.3553 4.82702 16.499 4.83989C16.7354 4.86105 16.7031 5.09483 16.704 5.24905L16.7067 5.78127C16.7065 6.08752 16.4048 6.05405 16.1874 6.0542L15.4514 6.05336C15.4304 6.06827 15.4377 6.29108 15.4376 6.32805L15.4363 15.1909C15.4361 15.5305 15.4154 15.8385 15.3506 16.174ZM12.5869 8.00598L12.5889 14.863L13.9215 14.8637L13.9258 8.00652L12.9952 8.00552C12.866 8.00536 12.7146 7.98989 12.5869 8.00598ZM6.12234 8.00611L6.12059 14.8636L7.45793 14.8637L7.45318 8.00689L6.12234 8.00611ZM9.34296 8.00598L9.34687 14.6687C9.34696 14.7314 9.34075 14.8014 9.3515 14.8628L10.6997 14.8599L10.7014 8.01195C10.6743 7.99998 10.6331 8.00592 10.6034 8.00592L9.34296 8.00598Z" fill="#C1AB91"/>
</svg>
